<svg width="10" height="20" viewBox="0 0 10 20" fill="none" xmlns="http://www.w3.org/2000/svg">
<path d="M8.99763 12.7969C8.94529 12.7984 8.89529 12.8203 8.85857 12.8586L4.99998 16.7172L1.14138 12.8586C1.10388 12.8195 1.05232 12.7984 0.998416 12.7977C0.916385 12.7984 0.843729 12.8477 0.812479 12.9227C0.78201 12.9984 0.799979 13.0844 0.858573 13.1414L4.85857 17.1414C4.9367 17.2195 5.06326 17.2195 5.14138 17.1414L9.14138 13.1414C9.20076 13.0844 9.21873 12.9961 9.18748 12.9203C9.15545 12.8445 9.08045 12.7953 8.99763 12.7969Z" fill="black"/>
<path d="M8.99763 7.20312C8.94529 7.20156 8.89529 7.17968 8.85857 7.1414L4.99998 3.28281L1.14138 7.1414C1.10388 7.18046 1.05232 7.20156 0.998416 7.20234C0.916385 7.20156 0.843729 7.15234 0.812479 7.07734C0.78201 7.00156 0.799979 6.91562 0.858573 6.85859L4.85857 2.85859C4.9367 2.78047 5.06326 2.78047 5.14138 2.85859L9.14138 6.85859C9.20076 6.91562 9.21873 7.0039 9.18748 7.07968C9.15545 7.15546 9.08045 7.20468 8.99763 7.20312Z" fill="black"/>
</svg>
